# Blender 4.1.1
# www.blender.org
o FinalLayer
v -70.710678 -1.000000 0.000000
v 0.000000 -1.000000 70.710678
v 0.000000 -1.000000 -70.710678
v 70.710678 -1.000000 0.000000
v 0.000000 0.000000 -70.710678
v -70.710678 0.000000 0.000000
v 0.000000 0.000000 70.710678
v 70.710678 0.000000 0.000000
vn -0.0000 -1.0000 -0.0000
vn -0.0000 1.0000 -0.0000
vn 0.7071 -0.0000 -0.7071
vn -0.7071 -0.0000 0.7071
vn 0.7071 -0.0000 0.7071
vn -0.7071 -0.0000 -0.7071
vt 0.000000 0.000000
vt 0.000000 1.000000
vt 1.000000 1.000000
vt 1.000000 0.000000
s 0
f 1/1/1 3/2/1 4/3/1 2/4/1
f 6/1/2 7/4/2 8/3/2 5/2/2
f 4/3/3 3/2/3 5/2/3 8/3/3
f 1/1/4 2/4/4 7/4/4 6/1/4
f 2/4/5 4/3/5 8/3/5 7/4/5
f 3/2/6 1/1/6 6/1/6 5/2/6
