# Blender 4.1.1
# www.blender.org
o Layer
v -0.980785 -1.000000 -0.195090
v -1.000000 -1.000000 0.000000
v 1.000000 -1.000000 0.000000
v 0.980785 -1.000000 -0.195090
v -70.710678 -1.000000 0.000000
v 0.000000 -1.000000 70.710678
v 70.710678 -1.000000 0.000000
v 45.961933 -1.000000 -24.748737
v -45.961929 -1.000000 -24.748741
v -0.980785 0.000000 -0.195090
v -1.000000 0.000000 0.000000
v -0.980785 0.000000 0.195090
v -0.923880 0.000000 0.382683
v -0.831469 0.000000 0.555570
v -0.707107 0.000000 0.707107
v -0.555570 0.000000 0.831470
v -0.382683 0.000000 0.923880
v -0.195090 0.000000 0.980785
v 0.000000 0.000000 1.000000
v 0.195090 0.000000 0.980785
v 0.382683 0.000000 0.923880
v 0.555570 0.000000 0.831469
v 0.707107 0.000000 0.707107
v 0.831470 0.000000 0.555570
v 0.923880 0.000000 0.382683
v 0.980785 0.000000 0.195090
v 1.000000 0.000000 0.000000
v 0.980785 0.000000 -0.195090
v -70.710678 0.000000 0.000000
v 0.000000 0.000000 70.710678
v 70.710678 0.000000 0.000000
v 45.961933 0.000000 -24.748737
v -45.961929 0.000000 -24.748741
vn -0.0000 1.0000 -0.0000
vn 0.4791 -0.0000 -0.8777
vn -0.4791 -0.0000 -0.8777
vn -0.7071 -0.0000 0.7071
vn 0.7071 -0.0000 0.7071
vn 0.7071 -0.0000 -0.7071
vn -0.7071 -0.0000 -0.7071
vt 0.000000 0.000000
s 0
f 11/1/1 10/1/1 33/1/1 29/1/1 30/1/1 31/1/1 32/1/1 28/1/1 27/1/1 26/1/1 25/1/1 24/1/1 23/1/1 22/1/1 21/1/1 20/1/1 19/1/1 18/1/1 17/1/1 16/1/1 15/1/1 14/1/1 13/1/1 12/1/1
f 1/1/2 9/1/2 33/1/2 10/1/2
f 8/1/3 4/1/3 28/1/3 32/1/3
f 5/1/4 6/1/4 30/1/4 29/1/4
f 6/1/5 7/1/5 31/1/5 30/1/5
f 7/1/6 8/1/6 32/1/6 31/1/6
f 9/1/7 5/1/7 29/1/7 33/1/7
l 2 1
l 4 3
